<svg width="245" height="104" viewBox="0 0 245 104" fill="none" xmlns="http://www.w3.org/2000/svg">
<path d="M123.887 79.13C123.254 79.13 122.687 78.9697 122.184 78.649C121.681 78.3283 121.283 77.8993 120.988 77.362C120.693 76.8247 120.546 76.2353 120.546 75.594C120.546 74.9527 120.689 74.372 120.975 73.852C121.261 73.3233 121.655 72.903 122.158 72.591C122.661 72.279 123.233 72.123 123.874 72.123C124.489 72.123 125.031 72.266 125.499 72.552C125.967 72.8293 126.318 73.2107 126.552 73.696L125.915 73.904C125.716 73.5313 125.43 73.241 125.057 73.033C124.693 72.8163 124.29 72.708 123.848 72.708C123.354 72.708 122.908 72.838 122.509 73.098C122.11 73.3493 121.79 73.6917 121.547 74.125C121.313 74.5583 121.196 75.048 121.196 75.594C121.196 76.14 121.317 76.6383 121.56 77.089C121.803 77.531 122.123 77.8863 122.522 78.155C122.929 78.415 123.376 78.545 123.861 78.545C124.173 78.545 124.476 78.4887 124.771 78.376C125.074 78.2547 125.334 78.0987 125.551 77.908C125.776 77.7173 125.924 77.5137 125.993 77.297L126.63 77.479C126.517 77.7997 126.322 78.0857 126.045 78.337C125.776 78.5797 125.456 78.7747 125.083 78.922C124.71 79.0607 124.312 79.13 123.887 79.13ZM130.869 79.13C130.236 79.13 129.668 78.9697 129.166 78.649C128.672 78.3283 128.282 77.9037 127.996 77.375C127.71 76.8463 127.567 76.2657 127.567 75.633C127.567 75.1563 127.649 74.71 127.814 74.294C127.978 73.8693 128.212 73.4967 128.516 73.176C128.819 72.8467 129.17 72.591 129.569 72.409C129.967 72.2183 130.401 72.123 130.869 72.123C131.337 72.123 131.77 72.2183 132.169 72.409C132.567 72.591 132.914 72.8467 133.209 73.176C133.512 73.4967 133.746 73.8693 133.911 74.294C134.084 74.71 134.171 75.1563 134.171 75.633C134.171 76.2657 134.023 76.8463 133.729 77.375C133.443 77.9037 133.048 78.3283 132.546 78.649C132.052 78.9697 131.493 79.13 130.869 79.13ZM128.217 75.659C128.217 76.1877 128.334 76.673 128.568 77.115C128.81 77.5483 129.131 77.895 129.53 78.155C129.928 78.415 130.37 78.545 130.856 78.545C131.341 78.545 131.783 78.415 132.182 78.155C132.589 77.8863 132.91 77.531 133.144 77.089C133.386 76.647 133.508 76.1573 133.508 75.62C133.508 75.0913 133.386 74.606 133.144 74.164C132.91 73.722 132.589 73.371 132.182 73.111C131.783 72.8423 131.345 72.708 130.869 72.708C130.383 72.708 129.941 72.8423 129.543 73.111C129.144 73.3797 128.823 73.7393 128.581 74.19C128.338 74.632 128.217 75.1217 128.217 75.659ZM135.26 75.633C135.26 75.009 135.394 74.4327 135.663 73.904C135.932 73.3667 136.3 72.9377 136.768 72.617C137.236 72.2877 137.769 72.123 138.367 72.123C138.956 72.123 139.476 72.279 139.927 72.591C140.386 72.903 140.746 73.2757 141.006 73.709V69.51H141.656V78.142C141.656 78.35 141.747 78.4583 141.929 78.467V79C141.79 79.0173 141.686 79.0217 141.617 79.013C141.461 78.987 141.331 78.9133 141.227 78.792C141.123 78.6707 141.071 78.5407 141.071 78.402V77.648C140.794 78.0987 140.421 78.4583 139.953 78.727C139.494 78.9957 139.013 79.13 138.51 79.13C138.033 79.13 137.596 79.0347 137.197 78.844C136.807 78.6447 136.465 78.3803 136.17 78.051C135.884 77.7217 135.659 77.349 135.494 76.933C135.338 76.517 135.26 76.0837 135.26 75.633ZM141.006 76.725V74.502C140.885 74.1727 140.69 73.8737 140.421 73.605C140.152 73.3277 139.849 73.111 139.511 72.955C139.173 72.7903 138.839 72.708 138.51 72.708C137.99 72.708 137.535 72.851 137.145 73.137C136.755 73.4143 136.452 73.7783 136.235 74.229C136.027 74.6797 135.923 75.152 135.923 75.646C135.923 76.1573 136.044 76.634 136.287 77.076C136.53 77.518 136.855 77.8733 137.262 78.142C137.669 78.4107 138.124 78.545 138.627 78.545C138.861 78.545 139.108 78.4973 139.368 78.402C139.637 78.3067 139.888 78.1767 140.122 78.012C140.365 77.8387 140.564 77.6437 140.72 77.427C140.885 77.2017 140.98 76.9677 141.006 76.725ZM146.599 79.13C145.966 79.13 145.394 78.9697 144.883 78.649C144.38 78.3283 143.982 77.8993 143.687 77.362C143.401 76.8247 143.258 76.2353 143.258 75.594C143.258 74.9613 143.401 74.385 143.687 73.865C143.973 73.3363 144.367 72.916 144.87 72.604C145.373 72.2833 145.936 72.123 146.56 72.123C147.201 72.123 147.769 72.2833 148.263 72.604C148.766 72.916 149.16 73.3363 149.446 73.865C149.732 74.3937 149.875 74.97 149.875 75.594C149.875 75.698 149.871 75.7933 149.862 75.88H143.934C143.969 76.4 144.112 76.868 144.363 77.284C144.614 77.6913 144.935 78.0163 145.325 78.259C145.724 78.493 146.157 78.61 146.625 78.61C147.093 78.61 147.535 78.4887 147.951 78.246C148.367 78.0033 148.657 77.6913 148.822 77.31L149.394 77.466C149.264 77.7867 149.056 78.0727 148.77 78.324C148.493 78.5753 148.163 78.7747 147.782 78.922C147.409 79.0607 147.015 79.13 146.599 79.13ZM143.908 75.373H149.251C149.216 74.8443 149.073 74.3763 148.822 73.969C148.579 73.553 148.263 73.2323 147.873 73.007C147.483 72.773 147.05 72.656 146.573 72.656C146.096 72.656 145.663 72.773 145.273 73.007C144.883 73.241 144.567 73.566 144.324 73.982C144.081 74.3893 143.943 74.853 143.908 75.373ZM157.66 78.675C157.599 78.7097 157.439 78.7877 157.179 78.909C156.919 79.0217 156.607 79.078 156.243 79.078C155.888 79.078 155.576 78.974 155.307 78.766C155.047 78.558 154.917 78.259 154.917 77.869V72.773H153.968V72.24H154.917V69.926H155.567V72.24H157.14V72.773H155.567V77.713C155.584 77.9643 155.675 78.155 155.84 78.285C156.005 78.4063 156.195 78.467 156.412 78.467C156.681 78.467 156.915 78.4237 157.114 78.337C157.313 78.2417 157.43 78.181 157.465 78.155L157.66 78.675ZM164.333 79H163.683V75.23C163.683 73.5573 163.124 72.721 162.006 72.721C161.642 72.721 161.287 72.812 160.94 72.994C160.593 73.176 160.286 73.4273 160.017 73.748C159.757 74.06 159.571 74.4153 159.458 74.814V79H158.808V69.51H159.458V73.852C159.735 73.3233 160.121 72.903 160.615 72.591C161.109 72.279 161.633 72.123 162.188 72.123C162.942 72.123 163.488 72.3917 163.826 72.929C164.164 73.4577 164.333 74.1857 164.333 75.113V79ZM165.739 77.05C165.739 76.6513 165.856 76.3003 166.09 75.997C166.333 75.6937 166.667 75.4597 167.091 75.295C167.525 75.1217 168.019 75.035 168.573 75.035C168.92 75.035 169.28 75.0653 169.652 75.126C170.034 75.1867 170.367 75.269 170.653 75.373V74.736C170.653 74.112 170.471 73.6137 170.107 73.241C169.743 72.8683 169.249 72.682 168.625 72.682C168.287 72.682 167.936 72.7513 167.572 72.89C167.208 73.0287 166.836 73.228 166.454 73.488L166.181 73.02C167.065 72.422 167.902 72.123 168.69 72.123C169.488 72.123 170.12 72.3613 170.588 72.838C171.065 73.3147 171.303 73.9647 171.303 74.788V78.142C171.303 78.35 171.399 78.4583 171.589 78.467V79C171.425 79.0173 171.316 79.0217 171.264 79.013C171.1 78.9957 170.97 78.9263 170.874 78.805C170.788 78.6837 170.74 78.558 170.731 78.428V77.895C170.419 78.285 170.016 78.5883 169.522 78.805C169.037 79.0217 168.526 79.13 167.988 79.13C167.564 79.13 167.178 79.039 166.831 78.857C166.493 78.6663 166.225 78.415 166.025 78.103C165.835 77.791 165.739 77.44 165.739 77.05ZM170.393 77.609C170.567 77.3923 170.653 77.1887 170.653 76.998V75.88C170.029 75.6373 169.358 75.516 168.638 75.516C167.954 75.516 167.403 75.6547 166.987 75.932C166.571 76.2007 166.363 76.5603 166.363 77.011C166.363 77.297 166.437 77.5613 166.584 77.804C166.732 78.0467 166.935 78.2417 167.195 78.389C167.464 78.5363 167.772 78.61 168.118 78.61C168.604 78.61 169.05 78.519 169.457 78.337C169.865 78.1463 170.177 77.9037 170.393 77.609ZM176.246 78.675C176.185 78.7097 176.025 78.7877 175.765 78.909C175.505 79.0217 175.193 79.078 174.829 79.078C174.473 79.078 174.161 78.974 173.893 78.766C173.633 78.558 173.503 78.259 173.503 77.869V72.773H172.554V72.24H173.503V69.926H174.153V72.24H175.726V72.773H174.153V77.713C174.17 77.9643 174.261 78.155 174.426 78.285C174.59 78.4063 174.781 78.467 174.998 78.467C175.266 78.467 175.5 78.4237 175.7 78.337C175.899 78.2417 176.016 78.181 176.051 78.155L176.246 78.675ZM190.665 79H190.015V75.23C190.015 74.3807 189.88 73.7523 189.612 73.345C189.352 72.929 188.949 72.721 188.403 72.721C187.839 72.721 187.345 72.9203 186.921 73.319C186.496 73.709 186.197 74.2117 186.024 74.827V79H185.374V75.23C185.374 74.3633 185.244 73.7307 184.984 73.332C184.724 72.9247 184.321 72.721 183.775 72.721C183.22 72.721 182.726 72.916 182.293 73.306C181.868 73.6873 181.565 74.19 181.383 74.814V79H180.733V72.24H181.344V73.852C181.621 73.306 181.985 72.8813 182.436 72.578C182.895 72.2747 183.393 72.123 183.931 72.123C184.503 72.123 184.966 72.292 185.322 72.63C185.677 72.968 185.889 73.41 185.959 73.956C186.6 72.734 187.484 72.123 188.611 72.123C189.347 72.123 189.872 72.3873 190.184 72.916C190.504 73.436 190.665 74.1683 190.665 75.113V79ZM192.069 77.05C192.069 76.6513 192.186 76.3003 192.42 75.997C192.663 75.6937 192.997 75.4597 193.421 75.295C193.855 75.1217 194.349 75.035 194.903 75.035C195.25 75.035 195.61 75.0653 195.982 75.126C196.364 75.1867 196.697 75.269 196.983 75.373V74.736C196.983 74.112 196.801 73.6137 196.437 73.241C196.073 72.8683 195.579 72.682 194.955 72.682C194.617 72.682 194.266 72.7513 193.902 72.89C193.538 73.0287 193.166 73.228 192.784 73.488L192.511 73.02C193.395 72.422 194.232 72.123 195.02 72.123C195.818 72.123 196.45 72.3613 196.918 72.838C197.395 73.3147 197.633 73.9647 197.633 74.788V78.142C197.633 78.35 197.729 78.4583 197.919 78.467V79C197.755 79.0173 197.646 79.0217 197.594 79.013C197.43 78.9957 197.3 78.9263 197.204 78.805C197.118 78.6837 197.07 78.558 197.061 78.428V77.895C196.749 78.285 196.346 78.5883 195.852 78.805C195.367 79.0217 194.856 79.13 194.318 79.13C193.894 79.13 193.508 79.039 193.161 78.857C192.823 78.6663 192.555 78.415 192.355 78.103C192.165 77.791 192.069 77.44 192.069 77.05ZM196.723 77.609C196.897 77.3923 196.983 77.1887 196.983 76.998V75.88C196.359 75.6373 195.688 75.516 194.968 75.516C194.284 75.516 193.733 75.6547 193.317 75.932C192.901 76.2007 192.693 76.5603 192.693 77.011C192.693 77.297 192.767 77.5613 192.914 77.804C193.062 78.0467 193.265 78.2417 193.525 78.389C193.794 78.5363 194.102 78.61 194.448 78.61C194.934 78.61 195.38 78.519 195.787 78.337C196.195 78.1463 196.507 77.9037 196.723 77.609ZM202.576 78.675C202.515 78.7097 202.355 78.7877 202.095 78.909C201.835 79.0217 201.523 79.078 201.159 79.078C200.804 79.078 200.492 78.974 200.223 78.766C199.963 78.558 199.833 78.259 199.833 77.869V72.773H198.884V72.24H199.833V69.926H200.483V72.24H202.056V72.773H200.483V77.713C200.5 77.9643 200.591 78.155 200.756 78.285C200.921 78.4063 201.111 78.467 201.328 78.467C201.597 78.467 201.831 78.4237 202.03 78.337C202.229 78.2417 202.346 78.181 202.381 78.155L202.576 78.675ZM206.74 78.675C206.679 78.7097 206.519 78.7877 206.259 78.909C205.999 79.0217 205.687 79.078 205.323 79.078C204.968 79.078 204.656 78.974 204.387 78.766C204.127 78.558 203.997 78.259 203.997 77.869V72.773H203.048V72.24H203.997V69.926H204.647V72.24H206.22V72.773H204.647V77.713C204.664 77.9643 204.755 78.155 204.92 78.285C205.085 78.4063 205.275 78.467 205.492 78.467C205.761 78.467 205.995 78.4237 206.194 78.337C206.393 78.2417 206.51 78.181 206.545 78.155L206.74 78.675ZM210.634 79.13C210.001 79.13 209.429 78.9697 208.918 78.649C208.415 78.3283 208.017 77.8993 207.722 77.362C207.436 76.8247 207.293 76.2353 207.293 75.594C207.293 74.9613 207.436 74.385 207.722 73.865C208.008 73.3363 208.402 72.916 208.905 72.604C209.408 72.2833 209.971 72.123 210.595 72.123C211.236 72.123 211.804 72.2833 212.298 72.604C212.801 72.916 213.195 73.3363 213.481 73.865C213.767 74.3937 213.91 74.97 213.91 75.594C213.91 75.698 213.906 75.7933 213.897 75.88H207.969C208.004 76.4 208.147 76.868 208.398 77.284C208.649 77.6913 208.97 78.0163 209.36 78.259C209.759 78.493 210.192 78.61 210.66 78.61C211.128 78.61 211.57 78.4887 211.986 78.246C212.402 78.0033 212.692 77.6913 212.857 77.31L213.429 77.466C213.299 77.7867 213.091 78.0727 212.805 78.324C212.528 78.5753 212.198 78.7747 211.817 78.922C211.444 79.0607 211.05 79.13 210.634 79.13ZM207.943 75.373H213.286C213.251 74.8443 213.108 74.3763 212.857 73.969C212.614 73.553 212.298 73.2323 211.908 73.007C211.518 72.773 211.085 72.656 210.608 72.656C210.131 72.656 209.698 72.773 209.308 73.007C208.918 73.241 208.602 73.566 208.359 73.982C208.116 74.3893 207.978 74.853 207.943 75.373ZM218.538 72.825C217.932 72.8423 217.399 73.0243 216.939 73.371C216.489 73.709 216.172 74.177 215.99 74.775V79H215.34V72.24H215.964V73.904C216.198 73.436 216.51 73.0503 216.9 72.747C217.29 72.4437 217.702 72.2703 218.135 72.227C218.222 72.227 218.296 72.227 218.356 72.227C218.426 72.2183 218.486 72.214 218.538 72.214V72.825ZM221.903 79.13C221.366 79.13 220.867 79.039 220.408 78.857C219.949 78.675 219.546 78.3977 219.199 78.025L219.498 77.57C219.862 77.9253 220.235 78.1853 220.616 78.35C221.006 78.506 221.426 78.584 221.877 78.584C222.449 78.584 222.917 78.4627 223.281 78.22C223.645 77.9773 223.827 77.6393 223.827 77.206C223.827 76.9113 223.74 76.686 223.567 76.53C223.402 76.374 223.16 76.244 222.839 76.14C222.527 76.036 222.146 75.9277 221.695 75.815C221.236 75.6937 220.85 75.568 220.538 75.438C220.226 75.308 219.988 75.139 219.823 74.931C219.667 74.723 219.589 74.4413 219.589 74.086C219.589 73.644 219.697 73.28 219.914 72.994C220.139 72.6993 220.438 72.4827 220.811 72.344C221.192 72.1967 221.613 72.123 222.072 72.123C222.601 72.123 223.06 72.2097 223.45 72.383C223.849 72.5563 224.152 72.786 224.36 73.072L224.009 73.488C223.801 73.2193 223.519 73.0157 223.164 72.877C222.809 72.7383 222.427 72.669 222.02 72.669C221.699 72.669 221.4 72.7123 221.123 72.799C220.854 72.8857 220.633 73.0287 220.46 73.228C220.295 73.4187 220.213 73.6787 220.213 74.008C220.213 74.268 220.274 74.4717 220.395 74.619C220.516 74.7663 220.703 74.8877 220.954 74.983C221.205 75.0697 221.522 75.165 221.903 75.269C222.432 75.399 222.887 75.5333 223.268 75.672C223.649 75.8107 223.944 75.9927 224.152 76.218C224.36 76.4347 224.464 76.7423 224.464 77.141C224.464 77.7563 224.23 78.2417 223.762 78.597C223.294 78.9523 222.674 79.13 221.903 79.13Z" fill="black"/>
<path d="M148.256 59H141.416V48.344C141.416 47.408 141.224 46.736 140.84 46.328C140.48 45.896 140.036 45.68 139.508 45.68C138.98 45.68 138.404 45.932 137.78 46.436C137.156 46.94 136.7 47.588 136.412 48.38V59H129.572V48.344C129.572 47.408 129.38 46.736 128.996 46.328C128.636 45.896 128.192 45.68 127.664 45.68C127.136 45.68 126.56 45.932 125.936 46.436C125.312 46.94 124.856 47.588 124.568 48.38V59H117.728V40.064H123.884V42.872C125.252 40.76 127.568 39.704 130.832 39.704C132.392 39.704 133.568 40.04 134.36 40.712C135.152 41.384 135.68 42.14 135.944 42.98C136.616 41.948 137.54 41.144 138.716 40.568C139.892 39.992 141.212 39.704 142.676 39.704C143.924 39.704 144.92 39.932 145.664 40.388C146.408 40.844 146.96 41.432 147.32 42.152C147.704 42.872 147.956 43.628 148.076 44.42C148.196 45.188 148.256 45.896 148.256 46.544V59ZM150.539 53.276C150.539 52.004 150.887 50.888 151.583 49.928C152.279 48.944 153.239 48.176 154.463 47.624C155.711 47.072 157.127 46.796 158.711 46.796C160.247 46.796 161.519 47.036 162.527 47.516V46.94C162.527 46.052 162.263 45.392 161.735 44.96C161.231 44.528 160.403 44.312 159.251 44.312C158.195 44.312 157.199 44.492 156.263 44.852C155.351 45.188 154.391 45.692 153.383 46.364L151.403 42.116C153.899 40.508 156.743 39.704 159.935 39.704C162.935 39.704 165.251 40.388 166.883 41.756C168.539 43.1 169.367 45.104 169.367 47.768V51.44C169.367 52.088 169.463 52.544 169.655 52.808C169.847 53.048 170.183 53.192 170.663 53.24V59C170.111 59.12 169.583 59.204 169.079 59.252C168.599 59.324 168.167 59.36 167.783 59.36C166.559 59.36 165.623 59.144 164.975 58.712C164.351 58.256 163.943 57.596 163.751 56.732L163.607 56.048C161.879 58.256 159.731 59.36 157.163 59.36C155.915 59.36 154.787 59.096 153.779 58.568C152.771 58.04 151.979 57.32 151.403 56.408C150.827 55.472 150.539 54.428 150.539 53.276ZM161.627 53.744C162.227 53.336 162.527 52.892 162.527 52.412V51.008C162.143 50.864 161.699 50.744 161.195 50.648C160.715 50.552 160.283 50.504 159.899 50.504C159.083 50.504 158.387 50.708 157.811 51.116C157.259 51.524 156.983 52.04 156.983 52.664C156.983 53.192 157.187 53.624 157.595 53.96C158.027 54.296 158.567 54.464 159.215 54.464C160.103 54.464 160.907 54.224 161.627 53.744ZM186.207 57.956C185.247 58.364 184.215 58.712 183.111 59C182.031 59.264 180.963 59.396 179.907 59.396C178.875 59.396 177.927 59.228 177.063 58.892C176.199 58.532 175.503 57.956 174.975 57.164C174.471 56.348 174.219 55.256 174.219 53.888V45.212H171.879V40.064H174.219V34.124H181.059V40.064H184.767V45.212H181.059V51.476C181.059 52.1 181.191 52.544 181.455 52.808C181.719 53.048 182.079 53.168 182.535 53.168C182.871 53.168 183.255 53.108 183.687 52.988C184.119 52.868 184.551 52.724 184.983 52.556L186.207 57.956ZM187.102 53.276C187.102 52.004 187.45 50.888 188.146 49.928C188.842 48.944 189.802 48.176 191.026 47.624C192.274 47.072 193.69 46.796 195.274 46.796C196.81 46.796 198.082 47.036 199.09 47.516V46.94C199.09 46.052 198.826 45.392 198.298 44.96C197.794 44.528 196.966 44.312 195.814 44.312C194.758 44.312 193.762 44.492 192.826 44.852C191.914 45.188 190.954 45.692 189.946 46.364L187.966 42.116C190.462 40.508 193.306 39.704 196.498 39.704C199.498 39.704 201.814 40.388 203.446 41.756C205.102 43.1 205.93 45.104 205.93 47.768V51.44C205.93 52.088 206.026 52.544 206.218 52.808C206.41 53.048 206.746 53.192 207.226 53.24V59C206.674 59.12 206.146 59.204 205.642 59.252C205.162 59.324 204.73 59.36 204.346 59.36C203.122 59.36 202.186 59.144 201.538 58.712C200.914 58.256 200.506 57.596 200.314 56.732L200.17 56.048C198.442 58.256 196.294 59.36 193.726 59.36C192.478 59.36 191.35 59.096 190.342 58.568C189.334 58.04 188.542 57.32 187.966 56.408C187.39 55.472 187.102 54.428 187.102 53.276ZM198.19 53.744C198.79 53.336 199.09 52.892 199.09 52.412V51.008C198.706 50.864 198.262 50.744 197.758 50.648C197.278 50.552 196.846 50.504 196.462 50.504C195.646 50.504 194.95 50.708 194.374 51.116C193.822 51.524 193.546 52.04 193.546 52.664C193.546 53.192 193.75 53.624 194.158 53.96C194.59 54.296 195.13 54.464 195.778 54.464C196.666 54.464 197.47 54.224 198.19 53.744ZM222.77 57.956C221.81 58.364 220.778 58.712 219.674 59C218.594 59.264 217.526 59.396 216.47 59.396C215.438 59.396 214.49 59.228 213.626 58.892C212.762 58.532 212.066 57.956 211.538 57.164C211.034 56.348 210.782 55.256 210.782 53.888V45.212H208.442V40.064H210.782V34.124H217.622V40.064H221.33V45.212H217.622V51.476C217.622 52.1 217.754 52.544 218.018 52.808C218.282 53.048 218.642 53.168 219.098 53.168C219.434 53.168 219.818 53.108 220.25 52.988C220.682 52.868 221.114 52.724 221.546 52.556L222.77 57.956ZM223.664 53.276C223.664 52.004 224.012 50.888 224.708 49.928C225.404 48.944 226.364 48.176 227.588 47.624C228.836 47.072 230.252 46.796 231.836 46.796C233.372 46.796 234.644 47.036 235.652 47.516V46.94C235.652 46.052 235.388 45.392 234.86 44.96C234.356 44.528 233.528 44.312 232.376 44.312C231.32 44.312 230.324 44.492 229.388 44.852C228.476 45.188 227.516 45.692 226.508 46.364L224.528 42.116C227.024 40.508 229.868 39.704 233.06 39.704C236.06 39.704 238.376 40.388 240.008 41.756C241.664 43.1 242.492 45.104 242.492 47.768V51.44C242.492 52.088 242.588 52.544 242.78 52.808C242.972 53.048 243.308 53.192 243.788 53.24V59C243.236 59.12 242.708 59.204 242.204 59.252C241.724 59.324 241.292 59.36 240.908 59.36C239.684 59.36 238.748 59.144 238.1 58.712C237.476 58.256 237.068 57.596 236.876 56.732L236.732 56.048C235.004 58.256 232.856 59.36 230.288 59.36C229.04 59.36 227.912 59.096 226.904 58.568C225.896 58.04 225.104 57.32 224.528 56.408C223.952 55.472 223.664 54.428 223.664 53.276ZM234.752 53.744C235.352 53.336 235.652 52.892 235.652 52.412V51.008C235.268 50.864 234.824 50.744 234.32 50.648C233.84 50.552 233.408 50.504 233.024 50.504C232.208 50.504 231.512 50.708 230.936 51.116C230.384 51.524 230.108 52.04 230.108 52.664C230.108 53.192 230.312 53.624 230.72 53.96C231.152 54.296 231.692 54.464 232.34 54.464C233.228 54.464 234.032 54.224 234.752 53.744Z" fill="#262A52"/>
<ellipse cx="58" cy="52" rx="58" ry="52" fill="#262A52"/>
<path d="M12.792 47.004C12.792 45.444 13.08 43.92 13.656 42.432C14.256 40.92 15.12 39.552 16.248 38.328C17.376 37.104 18.744 36.132 20.352 35.412C21.984 34.668 23.82 34.296 25.86 34.296C28.308 34.296 30.444 34.812 32.268 35.844C34.092 36.852 35.448 38.196 36.336 39.876L30.972 43.692C30.66 42.852 30.204 42.204 29.604 41.748C29.028 41.292 28.392 40.98 27.696 40.812C27.024 40.62 26.364 40.524 25.716 40.524C24.372 40.524 23.268 40.86 22.404 41.532C21.564 42.204 20.94 43.056 20.532 44.088C20.124 45.096 19.92 46.14 19.92 47.22C19.92 48.396 20.148 49.5 20.604 50.532C21.084 51.564 21.756 52.404 22.62 53.052C23.508 53.676 24.564 53.988 25.788 53.988C26.436 53.988 27.096 53.892 27.768 53.7C28.44 53.484 29.052 53.148 29.604 52.692C30.156 52.236 30.576 51.624 30.864 50.856L36.588 54.276C36.084 55.524 35.244 56.592 34.068 57.48C32.892 58.368 31.56 59.052 30.072 59.532C28.584 59.988 27.108 60.216 25.644 60.216C23.748 60.216 22.008 59.844 20.424 59.1C18.864 58.332 17.508 57.324 16.356 56.076C15.228 54.804 14.352 53.388 13.728 51.828C13.104 50.244 12.792 48.636 12.792 47.004ZM47.7668 60.36C45.5108 60.36 43.6148 59.904 42.0788 58.992C40.5428 58.056 39.3788 56.844 38.5868 55.356C37.7948 53.868 37.3988 52.26 37.3988 50.532C37.3988 48.78 37.7948 47.16 38.5868 45.672C39.3788 44.184 40.5428 42.984 42.0788 42.072C43.6148 41.16 45.5108 40.704 47.7668 40.704C50.0228 40.704 51.9188 41.16 53.4548 42.072C54.9908 42.984 56.1548 44.184 56.9468 45.672C57.7388 47.16 58.1348 48.78 58.1348 50.532C58.1348 52.26 57.7388 53.868 56.9468 55.356C56.1548 56.844 54.9908 58.056 53.4548 58.992C51.9188 59.904 50.0228 60.36 47.7668 60.36ZM44.4188 50.532C44.4188 51.78 44.7308 52.776 45.3548 53.52C46.0028 54.24 46.8068 54.6 47.7668 54.6C48.7508 54.6 49.5548 54.24 50.1788 53.52C50.8028 52.776 51.1148 51.78 51.1148 50.532C51.1148 49.26 50.8028 48.264 50.1788 47.544C49.5548 46.824 48.7508 46.464 47.7668 46.464C46.8068 46.464 46.0028 46.824 45.3548 47.544C44.7308 48.264 44.4188 49.26 44.4188 50.532ZM59.5481 50.496C59.5481 48.624 59.8961 46.956 60.5921 45.492C61.3121 44.004 62.2961 42.84 63.5441 42C64.7921 41.136 66.2201 40.704 67.8281 40.704C69.0521 40.704 70.1801 40.992 71.2121 41.568C72.2441 42.12 73.0241 42.888 73.5521 43.872V33.72H80.3921V52.44C80.3921 53.088 80.4881 53.544 80.6801 53.808C80.8721 54.048 81.2081 54.192 81.6881 54.24V60C80.5121 60.24 79.5521 60.36 78.8081 60.36C76.4801 60.36 75.1361 59.484 74.7761 57.732L74.6321 57.048C73.9841 58.2 73.1081 59.04 72.0041 59.568C70.9001 60.096 69.7241 60.36 68.4761 60.36C66.7481 60.36 65.2121 59.94 63.8681 59.1C62.5241 58.26 61.4681 57.096 60.7001 55.608C59.9321 54.12 59.5481 52.416 59.5481 50.496ZM73.5881 52.656V49.272C73.2761 48.432 72.7841 47.76 72.1121 47.256C71.4641 46.728 70.7801 46.464 70.0601 46.464C69.0761 46.464 68.2481 46.872 67.5761 47.688C66.9281 48.504 66.6041 49.488 66.6041 50.64C66.6041 51.816 66.9521 52.776 67.6481 53.52C68.3441 54.24 69.2441 54.6 70.3481 54.6C71.6201 54.6 72.7001 53.952 73.5881 52.656ZM93.8215 60.36C91.6135 60.36 89.7295 59.916 88.1695 59.028C86.6335 58.14 85.4575 56.964 84.6415 55.5C83.8495 54.036 83.4535 52.464 83.4535 50.784C83.4535 48.96 83.8495 47.292 84.6415 45.78C85.4335 44.244 86.5975 43.02 88.1335 42.108C89.6695 41.172 91.5655 40.704 93.8215 40.704C96.0775 40.704 97.9735 41.16 99.5095 42.072C101.046 42.984 102.21 44.184 103.002 45.672C103.794 47.16 104.19 48.78 104.19 50.532C104.19 51.276 104.13 51.972 104.01 52.62H90.7255C90.7975 53.628 91.1695 54.36 91.8415 54.816C92.5135 55.248 93.2455 55.464 94.0375 55.464C94.7815 55.464 95.4775 55.296 96.1255 54.96C96.7975 54.624 97.2415 54.156 97.4575 53.556L103.254 55.212C102.486 56.724 101.298 57.96 99.6895 58.92C98.0815 59.88 96.1255 60.36 93.8215 60.36ZM90.5815 48.516H96.8455C96.7495 47.604 96.4135 46.884 95.8375 46.356C95.2855 45.828 94.5775 45.564 93.7135 45.564C92.8495 45.564 92.1415 45.828 91.5895 46.356C91.0375 46.884 90.7015 47.604 90.5815 48.516Z" fill="white"/>
</svg>
